<svg width="21" height="23" viewBox="0 0 21 23" fill="none" xmlns="http://www.w3.org/2000/svg">
<path d="M11.625 17.7219V19.3891C10.6165 19.7192 9.56111 19.8833 8.5 19.875C3.59375 19.875 0.6875 16.7047 0.6875 13.625V12.8438C0.6875 12.2221 0.93443 11.626 1.37397 11.1865C1.81351 10.7469 2.40965 10.5 3.03125 10.5H10.8922C10.6672 10.9328 10.3922 11.4953 10.2594 12.0625H3.03125C2.82405 12.0625 2.62534 12.1448 2.47882 12.2913C2.33231 12.4378 2.25 12.6365 2.25 12.8438V13.625C2.25 15.8719 4.4875 18.3125 8.5 18.3125C9.70625 18.3125 10.7516 18.0922 11.625 17.7219ZM8.5 0.34375C9.6396 0.34375 10.7325 0.796455 11.5383 1.60228C12.3442 2.4081 12.7969 3.50102 12.7969 4.64062C12.7969 5.78023 12.3442 6.87315 11.5383 7.67897C10.7325 8.4848 9.6396 8.9375 8.5 8.9375C7.3604 8.9375 6.26747 8.4848 5.46165 7.67897C4.65583 6.87315 4.20312 5.78023 4.20312 4.64062C4.20312 3.50102 4.65583 2.4081 5.46165 1.60228C6.26747 0.796455 7.3604 0.34375 8.5 0.34375ZM8.5 1.90625C7.7748 1.90625 7.0793 2.19434 6.56651 2.70713C6.05371 3.21992 5.76562 3.91542 5.76562 4.64062C5.76562 5.36583 6.05371 6.06133 6.56651 6.57412C7.0793 7.08691 7.7748 7.375 8.5 7.375C9.2252 7.375 9.9207 7.08691 10.4335 6.57412C10.9463 6.06133 11.2344 5.36583 11.2344 4.64062C11.2344 3.91542 10.9463 3.21992 10.4335 2.70713C9.9207 2.19434 9.2252 1.90625 8.5 1.90625ZM16.3125 18.3125C17.5557 18.3125 18.748 17.8186 19.6271 16.9396C20.5061 16.0605 21 14.8682 21 13.625C21 12.3818 20.5061 11.1895 19.6271 10.3104C18.748 9.43136 17.5557 8.9375 16.3125 8.9375C15.0693 8.9375 13.877 9.43136 12.9979 10.3104C12.1189 11.1895 11.625 12.3818 11.625 13.625C11.625 14.8682 12.1189 16.0605 12.9979 16.9396C13.877 17.8186 15.0693 18.3125 16.3125 18.3125ZM16.3125 19.875C17.4098 19.8764 18.488 19.5875 19.4375 19.0375V22.6078C19.4376 22.6769 19.4193 22.7447 19.3846 22.8044C19.3499 22.8642 19.3 22.9136 19.24 22.9478C19.18 22.9819 19.112 22.9995 19.0429 22.9988C18.9738 22.9981 18.9062 22.9791 18.8469 22.9437L16.3125 21.4375L13.7781 22.9453C13.7188 22.9807 13.6512 22.9997 13.5821 23.0004C13.513 23.0011 13.445 22.9835 13.385 22.9493C13.325 22.9152 13.2751 22.8657 13.2404 22.806C13.2057 22.7463 13.1874 22.6784 13.1875 22.6094V19.0391C14.1372 19.5885 15.2153 19.8769 16.3125 19.875Z" fill="black"/>
</svg>
