<svg width="10" height="10" viewBox="0 0 10 10" fill="none" xmlns="http://www.w3.org/2000/svg">
<path d="M0.6 9C0.6 9.22091 0.779086 9.4 1 9.4L4.6 9.4C4.82091 9.4 5 9.22091 5 9C5 8.77909 4.82091 8.6 4.6 8.6L1.4 8.6L1.4 5.4C1.4 5.17909 1.22091 5 1 5C0.779086 5 0.6 5.17909 0.6 5.4L0.6 9ZM9.4 1C9.4 0.779086 9.22091 0.6 9 0.6L5.4 0.6C5.17909 0.6 5 0.779086 5 1C5 1.22091 5.17909 1.4 5.4 1.4L8.6 1.4L8.6 4.6C8.6 4.82091 8.77909 5 9 5C9.22091 5 9.4 4.82091 9.4 4.6L9.4 1ZM1.28284 9.28284L9.28284 1.28284L8.71716 0.717158L0.717157 8.71716L1.28284 9.28284Z" fill="#808080"/>
</svg>
